<svg width="16" height="16" viewBox="0 0 16 16" fill="none" xmlns="http://www.w3.org/2000/svg">
<g id="icon">
<g id="Vector">
<path fill-rule="evenodd" clip-rule="evenodd" d="M3.33333 0.666504C2.8029 0.666504 2.29419 0.877217 1.91911 1.25229C1.54404 1.62736 1.33333 2.13607 1.33333 2.6665V13.3332C1.33333 13.8636 1.54404 14.3723 1.91911 14.7474C2.29419 15.1225 2.80289 15.3332 3.33333 15.3332H8.66666C9.03485 15.3332 9.33333 15.0347 9.33333 14.6665C9.33333 14.2983 9.03485 13.9998 8.66666 13.9998H3.33333C3.15652 13.9998 2.98695 13.9296 2.86192 13.8046C2.7369 13.6795 2.66666 13.51 2.66666 13.3332V2.6665C2.66666 2.48969 2.7369 2.32012 2.86192 2.1951C2.98695 2.07007 3.15652 1.99984 3.33333 1.99984H8V3.99984C8 4.53027 8.21071 5.03898 8.58578 5.41405C8.96085 5.78912 9.46956 5.99984 10 5.99984H12V7.99984C12 8.36803 12.2985 8.6665 12.6667 8.6665C13.0349 8.6665 13.3333 8.36803 13.3333 7.99984V4.6665C13.3333 4.48969 13.2631 4.32012 13.1381 4.1951L9.80473 0.861766C9.67971 0.736742 9.51014 0.666504 9.33333 0.666504H3.33333ZM9.33333 2.27598V3.99984C9.33333 4.17665 9.40357 4.34622 9.52859 4.47124C9.65361 4.59627 9.82318 4.6665 10 4.6665H11.7239L9.33333 2.27598Z" fill="#363B3F"/>
<path fill-rule="evenodd" clip-rule="evenodd" d="M12.6667 9.99984C13.0349 9.99984 13.3333 10.2983 13.3333 10.6665V14.6665C13.3333 15.0347 13.0349 15.3332 12.6667 15.3332C12.2985 15.3332 12 15.0347 12 14.6665V10.6665C12 10.2983 12.2985 9.99984 12.6667 9.99984Z" fill="#363B3F"/>
<path fill-rule="evenodd" clip-rule="evenodd" d="M10.1953 12.1951C10.4556 11.9347 10.8777 11.9347 11.1381 12.1951L12.6667 13.7237L14.1953 12.1951C14.4556 11.9347 14.8777 11.9347 15.1381 12.1951C15.3984 12.4554 15.3984 12.8776 15.1381 13.1379L13.1381 15.1379C12.8777 15.3983 12.4556 15.3983 12.1953 15.1379L10.1953 13.1379C9.93491 12.8776 9.93491 12.4554 10.1953 12.1951Z" fill="#363B3F"/>
</g>
</g>
</svg>
