<svg width="16" height="16" viewBox="0 0 16 16" fill="none" xmlns="http://www.w3.org/2000/svg">
<path fill-rule="evenodd" clip-rule="evenodd" d="M1.33398 2.66659C1.33398 1.93021 1.93094 1.33325 2.66732 1.33325H13.334C14.0704 1.33325 14.6673 1.93021 14.6673 2.66659V5.99992C14.6673 6.7363 14.0704 7.33325 13.334 7.33325H2.66732C1.93094 7.33325 1.33398 6.7363 1.33398 5.99992V2.66659ZM13.334 2.66659H2.66732V5.99992H13.334V2.66659Z" fill="#363B3F"/>
<path fill-rule="evenodd" clip-rule="evenodd" d="M1.33398 9.99992C1.33398 9.26354 1.93094 8.66659 2.66732 8.66659H7.33398C8.07036 8.66659 8.66732 9.26354 8.66732 9.99992V13.3333C8.66732 14.0696 8.07036 14.6666 7.33398 14.6666H2.66732C1.93094 14.6666 1.33398 14.0696 1.33398 13.3333V9.99992ZM7.33398 9.99992H2.66732V13.3333H7.33398V9.99992Z" fill="#363B3F"/>
<path fill-rule="evenodd" clip-rule="evenodd" d="M11.334 8.66659C10.5976 8.66659 10.0007 9.26354 10.0007 9.99992V13.3333C10.0007 14.0696 10.5976 14.6666 11.334 14.6666H13.334C14.0704 14.6666 14.6673 14.0696 14.6673 13.3333V9.99992C14.6673 9.26354 14.0704 8.66659 13.334 8.66659H11.334ZM11.334 9.99992H13.334V13.3333H11.334V9.99992Z" fill="#363B3F"/>
</svg>
